<svg xmlns="http://www.w3.org/2000/svg" viewBox="0 0 400 400" width="400" height="400" role="img" aria-label="A steel vernier caliper on the bench">
  <defs>
    <linearGradient id="cb" x1="0" y1="0" x2="0" y2="1"><stop offset="0" stop-color="#e8ebe6"/><stop offset="1" stop-color="#d9ddd8"/></linearGradient>
    <linearGradient id="cs" x1="0" y1="0" x2="1" y2="1"><stop offset="0" stop-color="#cfd4cf"/><stop offset="0.5" stop-color="#eef1ed"/><stop offset="1" stop-color="#c4c9c4"/></linearGradient>
  </defs>
  <rect width="400" height="400" fill="url(#cb)"/>
  <g stroke="#141814" stroke-opacity="0.06"><path d="M0 100h400M0 200h400M0 300h400M100 0v400M200 0v400M300 0v400"/></g>
  <g transform="translate(46 250) rotate(-6)">
    <rect x="0" y="0" width="300" height="30" rx="4" fill="url(#cs)" stroke="#141814" stroke-opacity="0.4"/>
    <rect x="0" y="0" width="300" height="30" rx="4" fill="none" stroke="#141814" stroke-opacity="0.2"/>
    <rect x="286" y="-18" width="16" height="66" rx="2" fill="#b9beb9" stroke="#141814" stroke-opacity="0.45"/>
    <rect x="84" y="-14" width="15" height="58" rx="2" fill="#b9beb9" stroke="#141814" stroke-opacity="0.45"/>
    <g stroke="#141814" stroke-opacity="0.5" stroke-width="1">
      <path d="M120 0v-8M140 0v-6M160 0v-8M180 0v-6M200 0v-8"/>
    </g>
    <rect x="196" y="-4" width="10" height="38" rx="1" fill="#d3301f"/>
    <rect x="170" y="0" width="52" height="4" fill="#141814" fill-opacity="0.5"/>
  </g>
</svg>